<?xml version="1.0" encoding="UTF-8"?>
<svg width="16px" height="16px" viewBox="0 0 16 16" version="1.1" xmlns="http://www.w3.org/2000/svg" xmlns:xlink="http://www.w3.org/1999/xlink">
    <title>16px/view_sel</title>
    <g id="v0.6" stroke="none" stroke-width="1" fill="none" fill-rule="evenodd">
        <g id="management" transform="translate(-1162.000000, -781.000000)">
            <g id="操作下拉框" transform="translate(1150.000000, 765.000000)">
                <g id="编组-3备份-2" transform="translate(4.000000, 4.000000)">
                    <g id="16px/view_sel" transform="translate(8.000000, 12.000000)">
                        <rect id="矩形" x="0" y="0" width="16" height="16"></rect>
                        <g id="编组" transform="translate(2.000000, 2.000000)">
                            <path d="M5,12 L0.625,12 C0.314339687,12 0.0566179375,11.7824178 0.00818019062,11.4973253 L0,11.4 L0,0.6 C0,0.3017661 0.226655719,0.05435322 0.523621716,0.007852983 L0.625,0 L6.875,0 L6.875,3 L10,3 L10,6" id="路径" stroke="#4E5969" stroke-linecap="round" stroke-linejoin="round"></path>
                            <line x1="7" y1="0" x2="10" y2="3" id="路径" stroke="#4E5969" stroke-linecap="round" stroke-linejoin="round"></line>
                            <g id="编组-23" transform="translate(6.000000, 8.000000)">
                                <path d="M3,4 C4.65686667,4 6,2 6,2 C6,2 4.65686667,0 3,0 C1.34313333,0 0,2 0,2 C0,2 1.34313333,4 3,4 Z" id="路径" stroke="#4E5969" stroke-linecap="round" stroke-linejoin="round"></path>
                                <path d="M3,3 C3.5523,3 4,2.5523 4,2 C4,1.4477 3.5523,1 3,1 C2.4477,1 2,1.4477 2,2 C2,2.5523 2.4477,3 3,3 Z" id="路径" fill="#4E5969"></path>
                            </g>
                        </g>
                    </g>
                </g>
            </g>
        </g>
    </g>
</svg>