<?xml version="1.0" encoding="UTF-8"?>
<svg width="182px" height="28px" viewBox="0 0 182 28" version="1.1" xmlns="http://www.w3.org/2000/svg" xmlns:xlink="http://www.w3.org/1999/xlink">
    <title>logo_Dmaster-black</title>
    <defs>
        <linearGradient x1="49.988188%" y1="50.0056319%" x2="49.988188%" y2="0%" id="linearGradient-1">
            <stop stop-color="#1E2844" offset="0%"></stop>
            <stop stop-color="#1E2844" stop-opacity="0" offset="100%"></stop>
        </linearGradient>
    </defs>
    <g id="v0.6" stroke="none" stroke-width="1" fill="none" fill-rule="evenodd">
        <g id="sign-in" transform="translate(-748.000000, -162.000000)" fill-rule="nonzero">
            <g id="logo_Dmaster-black" transform="translate(748.000000, 162.000000)">
                <g id="编组-4">
                    <rect id="矩形" fill="#1E2844" x="0.00146751707" y="21.7663546" width="6.21199977" height="6.22629096"></rect>
                    <rect id="矩形" fill="url(#linearGradient-1)" transform="translate(3.106000, 13.246941) rotate(180.000000) translate(-3.106000, -13.246941) " x="0" y="6.71764615" width="6.21199977" height="13.0585899"></rect>
                    <path d="M22.4955692,4.09063088 C19.88125,1.46061918 16.3261336,-0.0122589541 12.6221144,0 L12.6221144,0 L0.00146751707,0 L0.00146751707,6.94857639 L12.6221144,6.94857639 L12.6221144,6.94857639 C15.1595288,6.91184187 17.5200385,8.24761077 18.7994437,10.4442132 C20.0788489,12.6408156 20.0788489,15.3577903 18.7994437,17.5543928 C17.5200385,19.7509952 15.1595288,21.0867641 12.6221144,21.0500296 L8.44996331,21.0500296 L8.44996331,28 L12.6206468,28 C18.2709075,28.0003069 23.3648261,24.5886469 25.5265469,19.356253 C27.6882677,14.1238592 26.4919503,8.10146845 22.4955692,4.09798535 L22.4955692,4.09063088 Z" id="路径" fill="#1E2844"></path>
                </g>
                <path d="M83.6675509,1.83575159 C87.7281707,1.83575159 90.5105831,3.75673812 92.0162556,5.86011541 L92.0162556,2.24760169 L98.4498504,2.24760169 L98.4498504,27.5807954 L92.0162556,27.5807954 L92.0162556,23.8756154 C90.5105831,26.071659 87.6371846,27.9941164 83.6220579,27.9941164 C77.2354236,27.9941164 72.1255292,22.7342023 72.1255292,14.8237386 C72.1255292,6.91327495 77.2354236,1.83575159 83.6675509,1.83575159 Z M112.40447,1.8342807 C118.518146,1.8342807 122.214822,5.17320828 122.578766,10.2036631 L116.46509,10.2036631 C116.283118,8.23707884 114.731952,6.91327495 112.222498,6.91327495 C109.849523,6.91327495 108.618276,7.87376822 108.618276,9.33730696 C108.618276,13.9544407 122.624259,11.0744318 122.806231,20.3572389 C122.806231,24.6993156 119.020037,27.9926455 112.862336,27.9926455 C106.519727,27.9926455 102.095163,24.2874655 101.820737,19.5776655 L108.254332,19.5776655 C108.481797,21.498652 110.260428,22.9607199 112.815375,22.9607199 C115.324829,22.9607199 116.694023,21.8178358 116.694023,20.3542971 C116.694023,15.8268878 102.413614,18.7068967 102.413614,9.42556055 C102.413614,5.21880597 106.155783,1.8342807 112.40447,1.8342807 Z M152.259299,1.83575159 C159.558729,1.83575159 164.715584,6.82060868 164.715584,14.3648199 C164.722443,15.19169 164.661087,16.0177131 164.532144,16.8344496 L146.056104,16.8344496 C146.374556,20.5837564 148.929503,22.6871337 152.12282,22.6871337 C154.859739,22.6871337 156.365412,21.3162613 157.185754,19.6247341 L164.075746,19.6247341 C162.706553,24.2874655 158.509454,27.9926455 152.259299,27.9926455 C144.921714,27.9926455 139.575549,22.8709954 139.575549,14.914934 C139.575549,6.91180406 144.777897,1.83575159 152.259299,1.83575159 Z M132.465429,2.04903111 L132.465429,5.28499617 L138.121239,5.28499617 L135.095219,10.5434394 L132.463961,10.5434394 L132.463961,19.7644689 C132.463961,21.457467 133.149292,22.1899718 135.155387,22.1899718 L137.680984,22.1899718 L141.142857,27.5852081 L134.098775,27.5852081 C129.263306,27.5852081 126.027431,25.5259576 126.027431,19.7203421 L126.033301,2.04903111 L132.465429,2.04903111 Z M59.3375854,1.88134928 C64.6910877,1.88134928 68.4743467,5.72332234 68.4743467,12.7203613 L68.4743467,27.5763828 L62.8376136,27.5763828 L62.8376136,13.5881883 C62.8376136,9.56382451 60.8652706,7.46044722 57.8876785,7.46044722 C54.8689959,7.46044722 52.8981204,9.56382451 52.8981204,13.5881883 L52.8981204,27.5807954 L47.2628549,27.5807954 L47.2628549,13.5881883 C47.2628549,9.56382451 45.2905119,7.46044722 42.3114523,7.46044722 C39.2531467,7.46044722 37.2808037,9.56382451 37.2808037,13.5881883 L37.2808037,27.5807954 L31.6455382,27.5807954 L31.6455382,2.24760169 L37.2808037,2.24760169 L37.2808037,5.31147225 C38.6896201,3.20809496 41.0640628,1.88134928 43.8420726,1.88134928 C47.3039454,1.88134928 50.1612011,3.57434737 51.6903539,6.73529687 C53.1387932,3.85381708 56.0782299,1.88134928 59.3375854,1.88134928 Z M182,1.87987839 L182,8.60186036 L180.310888,8.60186036 C176.526161,8.60186036 174.244172,10.0653991 174.244172,14.9575899 L174.244172,27.5807954 L167.85607,27.5807954 L167.85607,2.24760169 L174.244172,2.24760169 L174.244172,6.17782835 C175.840831,3.57287647 178.486764,1.87987839 182,1.87987839 Z M85.3111701,7.46044722 C81.8889202,7.46044722 78.6501101,10.0212723 78.6501101,14.8222677 C78.6501101,19.6232632 81.8889202,22.366479 85.3111701,22.366479 C88.8229384,22.366479 92.0162556,19.7188712 92.0162556,14.914934 C92.0162556,10.1109968 88.8229384,7.46044722 85.3111701,7.46044722 Z M152.078794,7.09419482 C149.019021,7.09419482 146.602021,9.06224993 146.10013,12.5364997 L158.095614,12.5364997 C158.003161,9.19757211 155.357228,7.09419482 152.078794,7.09419482 Z" id="形状结合" fill="#1E2844"></path>
            </g>
        </g>
    </g>
</svg>