<?xml version="1.0" encoding="UTF-8"?>
<svg width="69px" height="72px" viewBox="0 0 69 72" version="1.1" xmlns="http://www.w3.org/2000/svg" xmlns:xlink="http://www.w3.org/1999/xlink">
    <title>LOGO D</title>
    <defs>
        <linearGradient x1="49.988188%" y1="50.0056319%" x2="49.988188%" y2="0%" id="linearGradient-1">
            <stop stop-color="#1672F0" offset="0%"></stop>
            <stop stop-color="#1672F0" stop-opacity="0" offset="100%"></stop>
        </linearGradient>
    </defs>
    <g id="v0.6" stroke="none" stroke-width="1" fill="none" fill-rule="evenodd" opacity="0.100000001">
        <g id="验证邮箱" transform="translate(-1311.000000, -736.000000)" fill-rule="nonzero">
            <g id="LOGO-D" transform="translate(1311.000000, 736.000000)">
                <rect id="矩形" fill="#1672F0" x="0" y="56" width="16" height="16"></rect>
                <rect id="矩形" fill="url(#linearGradient-1)" transform="translate(8.000000, 34.000000) rotate(180.000000) translate(-8.000000, -34.000000) " x="0" y="17" width="16" height="34"></rect>
                <path d="M58.375317,10.5187651 C51.5907957,3.75587789 42.3647749,-0.0315230247 32.7523308,0 L32.7523308,0 L0,0 L0,17.8677679 L32.7523308,17.8677679 L32.7523308,17.8677679 C39.3372736,17.7733077 45.4631239,21.208142 48.783358,26.8565483 C52.1035921,32.5049545 52.1035921,39.4914609 48.783358,45.1398671 C45.4631239,50.7882734 39.3372736,54.2231077 32.7523308,54.1286475 L21.9250196,54.1286475 L21.9250196,72 L32.7485224,72 C47.4117332,72.0007892 60.6311591,63.2279491 66.2411248,49.7732221 C71.8510905,36.3184951 68.7464806,20.8323474 58.375317,10.5376766 L58.375317,10.5187651 Z" id="路径" fill="#1672F0"></path>
            </g>
        </g>
    </g>
</svg>