<?xml version="1.0" encoding="UTF-8"?>
<svg width="165px" height="25px" viewBox="0 0 165 25" version="1.1" xmlns="http://www.w3.org/2000/svg" xmlns:xlink="http://www.w3.org/1999/xlink">
    <title>logo_Dmaster-white</title>
    <defs>
        <linearGradient x1="49.988188%" y1="50.0056319%" x2="49.988188%" y2="0%" id="linearGradient-1">
            <stop stop-color="#D1DBF4" offset="0%"></stop>
            <stop stop-color="#D1DBF4" stop-opacity="0" offset="100%"></stop>
        </linearGradient>
    </defs>
    <g id="v0.6" stroke="none" stroke-width="1" fill="none" fill-rule="evenodd">
        <g id="management" transform="translate(-120.000000, -1480.000000)" fill-rule="nonzero">
            <g id="logo_Dmaster-white" transform="translate(120.000000, 1480.000000)">
                <g id="编组-3">
                    <rect id="矩形" fill="#D1DBF4" x="0.0013304413" y="19.4342452" width="5.63175804" height="5.55918835"></rect>
                    <rect id="矩形" fill="url(#linearGradient-1)" transform="translate(2.815879, 11.827626) rotate(180.000000) translate(-2.815879, -11.827626) " x="0" y="5.99789835" width="5.63175804" height="11.6594553"></rect>
                    <path d="M20.3943347,3.652349 C18.0242102,1.30412427 14.8011651,-0.0109454947 11.4431257,0 L11.4431257,0 L0.0013304413,0 L0.0013304413,6.20408606 L11.4431257,6.20408606 L11.4431257,6.20408606 C13.7435289,6.17128738 15.8835514,7.36393819 17.0434517,9.32519036 C18.203352,11.2864425 18.203352,13.7123128 17.0434517,15.673565 C15.8835514,17.6348171 13.7435289,18.827468 11.4431257,18.7946693 L7.66068102,18.7946693 L7.66068102,25 L11.4417952,25 C16.5642842,25.000274 21.1823972,21.954149 23.1421991,17.2823688 C25.102001,12.6105886 24.0174274,7.23345397 20.3943347,3.65891549 L20.3943347,3.652349 Z" id="路径" fill="#D1DBF4"></path>
                </g>
                <path d="M75.85245,1.63906392 C79.5337811,1.63906392 82.0562978,3.35423047 83.4213306,5.2322459 L83.4213306,2.00678722 L89.2539853,2.00678722 L89.2539853,24.6257102 L83.4213306,24.6257102 L83.4213306,21.3175138 C82.0562978,23.278267 79.4512938,24.9947468 75.8112063,24.9947468 C70.0211258,24.9947468 65.3885292,20.2983949 65.3885292,13.2354809 C65.3885292,6.17256692 70.0211258,1.63906392 75.85245,1.63906392 Z M101.905152,1.63775062 C107.44777,1.63775062 110.799152,4.61893597 111.129101,9.11041345 L105.586483,9.11041345 C105.421508,7.35453468 104.015232,6.17256692 101.740177,6.17256692 C99.5888533,6.17256692 98.4726131,7.03015019 98.4726131,8.33688121 C98.4726131,12.4593221 111.170345,9.88788557 111.33532,18.1761061 C111.33532,22.0529604 107.902781,24.9934335 102.320249,24.9934335 C96.570082,24.9934335 92.5588015,21.6852371 92.310009,17.4800585 L98.1426636,17.4800585 C98.348882,19.195225 99.9613769,20.5006427 102.277675,20.5006427 C104.55273,20.5006427 105.794032,19.4802106 105.794032,18.1734796 C105.794032,14.1311498 92.8475072,16.7025863 92.8475072,8.41567906 C92.8475072,4.65964819 96.2401326,1.63775062 101.905152,1.63775062 Z M138.037277,1.63906392 C144.654892,1.63906392 149.330062,6.08982918 149.330062,12.8257321 C149.33628,13.5640089 149.280656,14.3015296 149.163757,15.0307586 L132.413501,15.0307586 C132.702207,18.378354 135.018505,20.2563694 137.913546,20.2563694 C140.394819,20.2563694 141.759851,19.0323761 142.503568,17.522084 L148.74999,17.522084 C147.508688,21.6852371 143.703626,24.9934335 138.037277,24.9934335 C131.38507,24.9934335 126.538272,20.4205316 126.538272,13.3169054 C126.538272,6.17125362 131.254687,1.63906392 138.037277,1.63906392 Z M120.092284,1.82949206 L120.092284,4.71874658 L125.219805,4.71874658 L122.476435,9.41378517 L120.090954,9.41378517 L120.090954,17.6468473 C120.090954,19.1584527 120.71227,19.8124748 122.530983,19.8124748 L124.820673,19.8124748 L127.959184,24.6296501 L121.573065,24.6296501 C117.189261,24.6296501 114.255638,22.7910336 114.255638,17.6074483 L114.26096,1.82949206 L120.092284,1.82949206 Z M53.7950637,1.67977614 C58.6485135,1.67977614 62.0783912,5.11010924 62.0783912,11.3574655 L62.0783912,24.6217703 L56.9681662,24.6217703 L56.9681662,12.132311 C56.9681662,8.53912903 55.1800531,6.66111359 52.4805877,6.66111359 C49.7438699,6.66111359 47.9570872,8.53912903 47.9570872,12.132311 L47.9570872,24.6257102 L42.8481926,24.6257102 L42.8481926,12.132311 C42.8481926,8.53912903 41.0600795,6.66111359 38.3592837,6.66111359 C35.586644,6.66111359 33.7985309,8.53912903 33.7985309,12.132311 L33.7985309,24.6257102 L28.6896363,24.6257102 L28.6896363,2.00678722 L33.7985309,2.00678722 L33.7985309,4.74238593 C35.0757545,2.8643705 37.2284086,1.67977614 39.7469339,1.67977614 C42.885445,1.67977614 45.4758142,3.19138158 46.862134,6.01365792 C48.1752796,3.4409081 50.8401535,1.67977614 53.7950637,1.67977614 Z M165,1.67846285 L165,7.68023246 L163.468662,7.68023246 C160.037454,7.68023246 157.968618,8.98696348 157.968618,13.354991 L157.968618,24.6257102 L152.177207,24.6257102 L152.177207,2.00678722 L157.968618,2.00678722 L157.968618,5.51591817 C159.416138,3.19006828 161.814924,1.67846285 165,1.67846285 Z M77.3425443,6.66111359 C74.2399552,6.66111359 71.3036712,8.94756456 71.3036712,13.2341676 C71.3036712,17.5207707 74.2399552,19.9700705 77.3425443,19.9700705 C80.5262903,19.9700705 83.4213306,17.606135 83.4213306,13.3169054 C83.4213306,9.0276757 80.5262903,6.66111359 77.3425443,6.66111359 Z M137.873632,6.33410251 C135.099662,6.33410251 132.908425,8.09129458 132.453414,11.1933033 L143.328442,11.1933033 C143.244624,8.21211795 140.845838,6.33410251 137.873632,6.33410251 Z" id="形状结合" fill="#D1DBF4"></path>
            </g>
        </g>
    </g>
</svg>